<svg xmlns:xlink="http://www.w3.org/1999/xlink" xmlns="http://www.w3.org/2000/svg" width="32" height="32" viewBox="0 0 32 32" fill="none">
<path d="M30 0H26C24.7988 0 24 0.800003 24 2H23C21.5996 2 21.5996 4 23 4H24V6C24 7.2 24.7988 8 26 8H30C31.1992 8 32 7.2 32 6V2C32 0.800003 31.1992 0 30 0Z" fill="white"/>
<path d="M17 2H19C20.3984 2 20.3984 4 19 4H17C15.5996 4 15.5996 2 17 2Z" fill="white"/>
<path d="M16 17V13C16 11.6 18 11.6 18 13V17C18 18.4 16 18.4 16 17Z" fill="white"/>
<path d="M17 26C15.5996 26 15.5996 28 17 28H19C20.3984 28 20.3984 26 19 26H17Z" fill="white"/>
<path fill-rule="evenodd" clip-rule="evenodd" d="M12 14H13C14.4004 14 14.1992 16 13 16H12V22C12 23.2 11.1992 24 10 24H2C0.800781 24 0 23.2 0 22V10C0 8.8 0.800781 8 2 8H10C11.1992 8 12 8.8 12 10V14ZM8 20H4V12H8V20Z" fill="white"/>
<path d="M26 24H30C31.1992 24 32 24.8 32 26V30C32 31.2 31.1992 32 30 32H26C24.7988 32 24 31.2 24 30V28H23C21.5996 28 21.5996 26 23 26H24C24 24.8 24.7988 24 26 24Z" fill="white"/>
<path d="M18 7C18 5.59999 16 5.59999 16 7V9C16 10.4 18 10.4 18 9V7Z" fill="white"/>
<path d="M26 12H30C31.1992 12 32 12.8 32 14V18C32 19.2 31.1992 20 30 20H26C24.7988 20 24 19.2 24 18V16H23C21.5996 16 21.5996 14 23 14H24C24 12.8 24.7988 12 26 12Z" fill="white"/>
<path d="M18 21C18 19.6 16 19.6 16 21V23C16 24.4 18 24.4 18 23V21Z" fill="white"/>
</svg>