<svg xmlns:xlink="http://www.w3.org/1999/xlink" xmlns="http://www.w3.org/2000/svg" width="32" height="32" viewBox="0 0 32 32" fill="none">
<path d="M31.9162 11.8859C31.7117 11.3024 31.1616 10.9102 30.5432 10.9102H21.0903L17.3619 0.947028C17.1492 0.37855 16.6056 0.00290298 15.9989 0.00290298C15.3922 0.00290298 14.8487 0.37855 14.6376 0.947028L10.9092 10.9102H1.45471C0.836357 10.9102 0.286205 11.3008 0.0817247 11.8859C-0.122756 12.4694 0.0650992 13.1176 0.548812 13.5032L8.16667 19.5636L4.66941 29.821C4.4733 30.3961 4.65606 31.0344 5.12818 31.4184C5.59861 31.8023 6.26016 31.8522 6.78544 31.543L15.9907 26.1143L25.457 31.7923C25.688 31.9319 25.9473 32.0001 26.2049 32.0001C26.2066 32.0001 26.2099 32.0001 26.2132 32.0001C27.0144 31.9735 27.6743 31.3502 27.6743 30.5456C27.6743 30.303 27.6161 30.0736 27.5097 29.8724L23.8413 19.5552L31.4491 13.5031C31.9328 13.1191 32.1206 12.4692 31.9162 11.8858V11.8859Z" fill="white"/>
</svg>